<?xml version="1.0" standalone="no"?>
<!DOCTYPE svg PUBLIC "-//W3C//DTD SVG 20010904//EN"
 "http://www.w3.org/TR/2001/REC-SVG-20010904/DTD/svg10.dtd">
<svg version="1.0" xmlns="http://www.w3.org/2000/svg"
 width="128.000000pt" height="128.000000pt" viewBox="0 0 128.000000 128.000000"
 preserveAspectRatio="xMidYMid meet">
<metadata>
Created by potrace 1.14, written by Peter Selinger 2001-2017
</metadata>
<g transform="translate(0.000000,128.000000) scale(0.100000,-0.100000)"
fill="#000000" stroke="none">
<path d="M0 640 l0 -640 640 0 640 0 0 640 0 640 -640 0 -640 0 0 -640z m1012
177 l-112 -112 0 -76 c0 -134 -48 -236 -146 -312 -183 -140 -455 -77 -560 130
-27 54 -29 66 -29 168 0 101 2 114 28 162 55 106 136 170 247 199 119 30 255
-5 344 -90 l40 -37 95 95 96 96 55 -55 55 -55 -113 -113z"/>
<path d="M419 926 c-86 -33 -141 -84 -190 -176 -34 -64 -35 -203 -1 -271 85
-173 278 -241 449 -158 58 28 121 94 150 155 24 52 43 174 27 174 -5 0 -72
-66 -149 -146 l-140 -146 -150 138 c-82 76 -151 140 -153 144 -1 3 22 33 52
66 l54 59 59 -55 c32 -30 75 -71 96 -90 l37 -34 115 114 115 114 -33 34 c-56
59 -120 85 -217 89 -56 2 -98 -2 -121 -11z"/>
</g>
</svg>
